<svg width="669" height="931" viewBox="0 0 669 931" fill="none" xmlns="http://www.w3.org/2000/svg">
<path opacity="0.4" d="M477.345 27.74C600.327 73.5626 685.844 177.15 700.794 298.246C706.489 344.387 703.889 412.966 666.146 493.854C628.401 574.744 555.484 668.003 420.454 763.455L406.946 772.856L161.978 925.338L161.976 925.34C158.675 927.411 154.997 928.81 151.155 929.456C147.319 930.1 143.394 929.98 139.605 929.105L135.764 927.946C132.109 926.594 128.757 924.534 125.901 921.883C123.045 919.231 120.741 916.041 119.122 912.496L117.688 908.739L113.445 894.564C112.727 890.361 114.053 886.229 116.626 882.41C119.052 878.809 122.551 875.546 126.33 872.872L127.09 872.346L130.2 870.41L130.203 870.409L391.866 706.54L391.886 706.528L391.904 706.515C567.603 585.06 655.564 443.417 638.666 307.891L638.666 307.89C626.514 210.643 559.595 127.07 462.968 87.2537L462.96 87.2509L462.952 87.247L452.899 83.3031L449.996 82.2215C353.447 46.2482 247.317 61.3261 172.812 121.715C83.2481 194.323 46.0657 323.096 67.0627 485.18L67.0637 485.188L69.1189 499.973L69.1219 499.993L69.834 504.456L69.8343 504.458C71.2151 512.992 67.9819 521.478 61.5251 526.985L58.5393 529.195L42.0681 539.461C39.1693 541.251 35.8729 542.297 32.4722 542.506C29.0713 542.715 25.6711 542.079 22.5751 540.657C19.4789 539.234 16.7817 537.068 14.725 534.351C12.6685 531.634 11.3158 528.451 10.7865 525.085L10.7856 525.085C-20.3929 322.926 23.5159 162.149 134.015 72.1061L134.015 72.1073C220.759 1.45951 343.435 -18.0012 456.894 20.2774L456.894 20.2787L467.864 24.2076L477.345 27.74ZM427.945 151.183C511.959 182.486 566.532 248.653 574.225 328.639C585.082 441.501 502.08 561.47 345.292 659.09L333.079 666.577L333.073 666.58L123.846 796.526L123.837 796.533L123.828 796.538C120.024 799.018 115.717 800.621 111.218 801.233C106.725 801.844 102.152 801.45 97.8289 800.08L96.7546 799.68C90.0619 797.127 84.4837 792.298 80.998 786.04L79.0537 782.034L75.6882 771.118C74.3977 763.836 76.1087 758.499 78.7325 754.59C81.3795 750.647 84.9932 748.103 87.5722 746.512L88.9994 745.658L89.0092 745.651L89.0196 745.645L309.978 606.273C378.927 565.383 432.123 520.575 467.144 474.932C501.89 429.647 518.785 383.479 515.32 339.485L515.235 338.446C510.31 280.523 468.74 231.412 404.336 207.018L404.327 207.015L404.319 207.013C341.223 184.339 280.952 193.119 239.121 231.26L239.121 231.261C205.62 261.837 156.91 337.678 196.995 505.611L196.996 505.619L200.001 517.748L200.334 519.088L201.503 518.354L281.223 468.381C290.708 462.482 302.704 462.197 312.394 467.57L312.394 467.571C317.298 470.305 321.375 474.309 324.198 479.162C327.022 484.015 328.487 489.539 328.44 495.154L328.44 495.155C328.409 499.56 327.408 503.905 325.51 507.88C323.614 511.85 320.868 515.354 317.467 518.146L313.724 520.877L83.3254 664.132L83.3115 664.141L83.2966 664.151C79.6462 666.598 75.5207 668.249 71.1896 668.996C66.8666 669.741 62.4356 669.568 58.1837 668.49C51.5124 666.497 45.7841 662.165 42.0522 656.287L39.7927 652.332L39.4323 651.487L35.3866 639.362C33.2196 632.869 34.3665 627.84 36.619 623.999C38.8911 620.125 42.3199 617.407 44.8082 615.656L46.1788 614.741L46.1861 614.735L46.193 614.73L47.0265 614.152L134.301 559.807L134.3 559.806C137.286 557.952 139.606 555.199 140.925 551.942C142.245 548.685 142.495 545.093 141.641 541.683C114.688 433.573 118.5 354.325 134.74 297.024C150.979 239.727 179.661 204.311 202.552 183.891C258.119 134.329 336.891 120.65 415.118 146.601L415.118 146.6L424.52 149.906L427.945 151.183Z" stroke="url(#paint0_linear_51_3486)" stroke-width="2"/>
<defs>
<linearGradient id="paint0_linear_51_3486" x1="472.954" y1="25.0367" x2="211.637" y2="791.128" gradientUnits="userSpaceOnUse">
<stop stop-color="#1980EF" stop-opacity="0.6"/>
<stop offset="1" stop-color="#1980EF" stop-opacity="0"/>
</linearGradient>
</defs>
</svg>
