<svg width="177" height="46" viewBox="0 0 177 46" fill="none" xmlns="http://www.w3.org/2000/svg">
<path fill-rule="evenodd" clip-rule="evenodd" d="M49.8729 15.8844C51.6182 15.8844 53.4484 16.5532 54.4077 17.9509V16.1764H57.7796V27.8427C57.7796 33.9536 54.8148 36.6003 50.165 36.6003C47.3737 36.6003 44.9329 35.0877 43.7399 32.6143L46.5312 31.3351C47.2002 32.6727 48.6817 33.5467 50.165 33.5467C52.7811 33.5467 54.4077 32.0322 54.4077 28.1629V27.9594C53.4484 29.3571 51.558 30.0542 49.903 30.0542C46.3276 30.0542 43.2177 27.2907 43.2177 22.9543C43.2177 18.5914 46.2975 15.8844 49.8729 15.8844ZM98.7605 15.8844C102.336 15.8844 105.446 18.6197 105.446 22.9543C105.446 27.319 102.364 30.0259 98.7888 30.0259C97.0737 30.0259 95.1851 29.3854 94.2558 27.9311V36.3969H90.884V16.1746H94.2558V17.9792C95.1851 16.5532 97.1339 15.8844 98.7605 15.8844ZM170.053 15.8844C173.947 15.8844 177 18.5914 177 22.8375C177 23.2161 176.97 23.6514 176.912 24.1467H166.421C166.798 26.0398 168.251 26.9987 170.256 26.9987C171.74 26.9987 173.134 26.4167 173.949 25.3109L176.186 27.027C174.936 29.0068 172.554 30.0542 170.083 30.0542C166.012 30.0542 162.932 27.2022 162.932 22.9543C162.932 18.6197 166.189 15.8844 170.053 15.8844ZM114.919 15.8844C118.813 15.8844 121.866 18.5914 121.866 22.8375C121.866 23.2161 121.836 23.6514 121.778 24.1467H111.287C111.664 26.0398 113.117 26.9987 115.122 26.9987C116.606 26.9987 118 26.4167 118.815 25.3109L121.052 27.027C119.802 29.0068 117.418 30.0542 114.949 30.0542C110.878 30.0542 107.798 27.2022 107.798 22.9543C107.798 18.6197 111.055 15.8844 114.919 15.8844ZM78.9683 15.8844C80.6816 15.8844 82.572 16.5532 83.5013 17.9792V16.1746H86.8731V29.7623H83.5013V27.9311C82.572 29.3854 80.6533 30.0542 78.9966 30.0542C75.4212 30.0542 72.3113 27.2907 72.3113 22.9543C72.3113 18.5914 75.3929 15.8844 78.9665 15.8844H78.9683ZM69.0563 15.8844C69.8705 15.8844 70.7431 16.0614 71.2652 16.3497L70.5962 19.552C69.9877 19.2291 69.3097 19.0591 68.6208 19.0567C66.4119 19.0567 65.1906 21.2098 65.1906 25.0207V29.7623H61.7904V16.1746H65.1622L65.1605 19.0832C65.8879 16.815 67.3712 15.8844 69.0563 15.8844ZM126.458 16.1764L130.061 25.4825L133.637 16.1764H137.299L131.573 29.764H128.493L122.824 16.1764H126.458ZM142.908 16.1764V29.764H139.536V16.1764H142.908ZM154.505 15.8844C157.992 15.8844 159.939 18.1844 159.939 22.1404V29.7623H156.569V22.4607C156.569 20.3075 155.259 19.2017 153.749 19.2017C152.209 19.2017 150.291 20.0457 150.291 22.6641V29.7623H146.919V16.1746H150.291V18.3295C150.988 16.6417 153.11 15.8844 154.505 15.8844ZM98.2348 19.0284C96.171 19.0284 94.3107 20.5994 94.3107 22.9861C94.3107 25.371 96.2878 26.8837 98.2348 26.8837C100.327 26.8837 102.072 25.256 102.072 22.9861C102.072 20.7162 100.327 19.0284 98.2348 19.0284ZM79.5188 19.0284C77.4248 19.0284 75.7115 20.6578 75.7115 22.9277C75.7115 25.1977 77.4248 26.8855 79.517 26.8855C81.5826 26.8855 83.4411 25.3127 83.4411 22.9277C83.4411 20.541 81.4658 19.0284 79.5188 19.0284ZM50.4234 19.0284C48.3313 19.0284 46.6179 20.6578 46.6179 22.9277C46.6179 25.1977 48.3313 26.8855 50.4234 26.8855C52.4872 26.8855 54.3475 25.3127 54.3475 22.9277C54.3475 20.541 52.3722 19.0284 50.4234 19.0284ZM170.111 18.855C168.279 18.855 166.826 19.7272 166.419 21.7919H173.626C173.423 19.9307 172 18.855 170.111 18.855ZM114.976 18.855C113.144 18.855 111.69 19.7272 111.285 21.7919H118.492C118.289 19.9307 116.864 18.855 114.976 18.855ZM141.221 9.31174C142.442 9.31174 143.4 10.184 143.4 11.3764C143.4 12.5406 142.441 13.4429 141.221 13.4429C140.028 13.4429 139.012 12.5406 139.012 11.3764C139.012 10.184 140.028 9.31174 141.221 9.31174Z" fill="white"/>
<path d="M31.3339 8.39146C28.64 3.21292 23.0751 0 16.7986 0H16.3154L15.7596 0.00707692C10.0354 0.185769 4.85995 3.105 2.15008 7.72092C-1.30143 13.6036 -0.57927 21.5368 4.18558 30.0575C4.26916 30.2059 4.38814 30.3314 4.53196 30.4227C4.67577 30.5141 4.83995 30.5685 5.00988 30.5811C5.17981 30.5937 5.35022 30.5641 5.50596 30.495C5.66169 30.4259 5.7979 30.3193 5.90249 30.1848L6.46889 29.4506L6.56801 29.2985C6.77333 28.9305 6.77687 28.4793 6.56447 28.106L6.45827 27.9185L6.1202 27.2921C2.48638 20.4081 2.01025 14.0548 4.79269 9.33977C7.10786 5.41738 11.5842 2.98469 16.4836 2.98469H16.6305L17.1456 2.99354C22.1122 3.16338 26.4788 5.77477 28.6329 9.90061C31.633 15.6506 30.0719 23.4228 24.245 31.7683L15.2782 43.4452L15.1702 43.585C14.8941 43.9742 14.7065 44.4785 14.9295 44.8588L15.3579 45.425L15.4871 45.5718C15.6231 45.7081 15.7848 45.8161 15.9628 45.8896C16.1409 45.9631 16.3317 46.0006 16.5243 46L16.719 45.9876C16.9095 45.9629 17.0933 45.9008 17.2598 45.8048C17.4262 45.7089 17.5721 45.581 17.6889 45.4285L26.1 34.5371L26.5478 33.8914C35.4474 20.8557 33.3871 12.3386 31.3339 8.39146Z" fill="white"/>
<path d="M26.1832 11.8574C24.4982 8.39323 20.9387 6.33738 16.6464 6.33738H16.4712L15.9951 6.34623C12.0515 6.48954 8.74157 8.41977 7.07423 11.5761C5.70071 14.1768 4.29532 19.8508 10.3133 28.6244C10.4026 28.7542 10.4483 28.9089 10.4438 29.0663C10.4394 29.2237 10.385 29.3756 10.2886 29.5001L7.29194 33.3818L7.26362 33.4225L7.2176 33.4862C7.05122 33.7286 6.76448 34.2293 7.19282 34.7601L7.57691 35.236L7.61054 35.2714L7.78046 35.4129C8.05463 35.6208 8.39471 35.7226 8.73804 35.6995C8.95313 35.6763 9.16092 35.6081 9.34787 35.4993C9.53482 35.3905 9.69673 35.2435 9.82305 35.0679L17.7367 24.8311L17.8606 24.6436C17.9699 24.4561 18.0365 24.2468 18.0558 24.0306C18.0751 23.8144 18.0465 23.5967 17.9721 23.3928C17.8778 23.1331 17.7153 22.9036 17.5017 22.7283C17.288 22.5531 17.0311 22.4385 16.7579 22.3967C16.2181 22.3153 15.6694 22.5347 15.3331 22.9699L12.602 26.5296L12.2657 26.0378C7.68488 19.2138 8.60351 15.0332 9.58233 13.1277C10.8072 10.7463 13.3365 9.35746 16.5207 9.32031C19.7917 9.338 22.4485 10.833 23.6238 13.3188C25.4274 17.1226 23.7123 22.7081 18.9156 28.6509L11.3594 38.5568L11.3099 38.6188C11.1293 38.8505 10.8125 39.3406 11.186 39.9722L11.5223 40.4092L11.6798 40.5596C11.9485 40.7889 12.2894 40.916 12.6427 40.9188H12.6993C12.9227 40.9078 13.1408 40.8473 13.3379 40.7417C13.5351 40.6362 13.7063 40.4882 13.8392 40.3084L21.0272 31.0199L21.4484 30.4821C26.8346 23.506 28.5603 16.744 26.1832 11.8574Z" fill="white"/>
</svg>
