<?xml version="1.0" encoding="UTF-8"?><svg id="Layer_1" xmlns="http://www.w3.org/2000/svg" width="153.03mm" height="60.42mm" viewBox="0 0 433.8 94.73"><defs><style>.cls-1{fill:#2c73bd;stroke-width:0px;}</style></defs><path d="m92.89,35.46C87.65,14.65,68.02-.43,46.56,0,22.2.13,1.35,20.09.87,44.54c-.04.92.87,1.66,1.77,1.43l50.23-12.27-2.36,8.93-4.36,16.5-5.75-16.66c-.23-.67-.92-1.08-1.63-.94-.78.15-1.28.9-1.13,1.68l5.61,28.73h6.71s7.27-27.54,7.27-27.54l3.85-14.57.03-.12c.16-.61.16-1.27-.05-1.92-.58-1.79-2.49-2.77-4.28-2.2L3.9,42.63C6.46,24.65,20.72,9.52,38.76,6.52c18.3-3.33,37.2,6.46,44.96,23.36,9.18,19.43,1.5,43.18-17.28,53.61-25.02,13.88-55.61-.41-62.07-28.08-.47-1.78-3.06-1.31-2.85.54,2.51,17.53,16.22,32.61,33.33,37.11,35.09,9.42,67-22.48,58.03-57.59Z" fill="#e2a352"/><path class="cls-1" d="m117.06,60.19h-8.54v-3.9h21.51v3.9h-8.54v24.56h-4.43v-24.56Z"/><path class="cls-1" d="m130.67,64.17h4.23v3.21c1.42-2.56,3.58-3.58,6.46-3.58.45,0,.89.04,1.34.08v4.03c-.53-.04-1.02-.08-1.47-.08-3.78,0-6.34,1.83-6.34,7.2v9.72h-4.23v-20.58Z"/><path class="cls-1" d="m143.69,79.34c0-3.7,2.6-5.61,7.2-6.26l6.18-.85v-.65c0-2.81-1.63-4.31-4.31-4.31-2.85,0-4.35,1.67-4.59,4.19l-4.23-.45c.53-4.23,3.9-7.24,9.11-7.24,4.8,0,8.25,2.52,8.25,7.36v8.7c0,1.5.16,2.97.49,4.92h-4.31c-.2-.94-.28-2.03-.32-2.93-1.14,1.79-3.54,3.34-6.87,3.34-3.82,0-6.59-2.03-6.59-5.82Zm7.44,2.4c3.01,0,5.94-2.03,5.94-6.14v-.4l-4.96.69c-3.62.53-4.23,1.91-4.23,3.21,0,1.67,1.22,2.64,3.25,2.64Z"/><path class="cls-1" d="m162.56,64.17h4.59l5.94,16.43,5.98-16.43h4.56l-7.89,20.58h-5.29l-7.89-20.58Z"/><path class="cls-1" d="m183.72,74.58c0-6.18,4.47-10.82,10.65-10.82,4.76,0,9.84,2.64,9.84,10.17,0,.61-.04,1.26-.12,1.95h-16.02c.53,3.42,2.93,5.61,6.14,5.61,2.56,0,4.68-1.46,5.61-3.5l3.98,1.3c-1.63,3.7-5.53,5.86-9.8,5.86-6.22,0-10.29-4.64-10.29-10.57Zm15.98-1.91c-.04-3.66-2.93-5.25-5.57-5.25-2.89,0-5.29,2-5.98,5.25h11.55Z"/><path class="cls-1" d="m207.32,54.82h4.23v29.93h-4.23v-29.93Z"/><path class="cls-1" d="m225.19,56.29h11.83c7.08,0,10.53,4.63,10.53,9.31s-3.58,9.56-10.57,9.56h-7.36v9.6h-4.43v-28.46Zm17.85,9.35c0-2.77-2.16-5.53-6.47-5.53h-6.95v11.31h6.91c4.27,0,6.51-2.89,6.51-5.77Z"/><path class="cls-1" d="m249.12,79.34c0-3.7,2.6-5.61,7.2-6.26l6.18-.85v-.65c0-2.81-1.63-4.31-4.31-4.31-2.85,0-4.35,1.67-4.59,4.19l-4.23-.45c.53-4.23,3.9-7.24,9.11-7.24,4.8,0,8.25,2.52,8.25,7.36v8.7c0,1.5.16,2.97.49,4.92h-4.31c-.2-.94-.28-2.03-.32-2.93-1.14,1.79-3.54,3.34-6.87,3.34-3.82,0-6.59-2.03-6.59-5.82Zm7.44,2.4c3.01,0,5.94-2.03,5.94-6.14v-.4l-4.96.69c-3.62.53-4.23,1.91-4.23,3.21,0,1.67,1.22,2.64,3.25,2.64Z"/><path class="cls-1" d="m271.04,64.17h4.23v3.21c1.42-2.56,3.58-3.58,6.46-3.58.45,0,.89.04,1.34.08v4.03c-.53-.04-1.02-.08-1.47-.08-3.78,0-6.34,1.83-6.34,7.2v9.72h-4.23v-20.58Z"/><path class="cls-1" d="m289.01,77.75v-9.88h-3.9v-3.7h3.9v-5.86h4.23v5.86h5.77v3.7h-5.77v9.64c0,2.72,1.42,3.87,3.25,3.87.69,0,1.42-.16,2.24-.45l.69,3.58c-1.18.49-2.4.65-3.54.65-3.74,0-6.87-2.2-6.87-7.4Z"/><path class="cls-1" d="m302.73,64.17h4.23v2.72c1.5-2.11,3.9-3.13,6.46-3.13,3.74,0,7.28,2.44,7.28,7.44v13.54h-4.27v-12.24c0-3.33-1.99-5-4.39-5-2.56,0-5.08,2.03-5.08,5.45v11.79h-4.23v-20.58Z"/><path class="cls-1" d="m323.67,74.58c0-6.18,4.47-10.82,10.65-10.82,4.76,0,9.84,2.64,9.84,10.17,0,.61-.04,1.26-.12,1.95h-16.02c.53,3.42,2.93,5.61,6.14,5.61,2.56,0,4.68-1.46,5.61-3.5l3.98,1.3c-1.63,3.7-5.53,5.86-9.8,5.86-6.22,0-10.29-4.64-10.29-10.57Zm15.98-1.91c-.04-3.66-2.93-5.25-5.57-5.25-2.89,0-5.29,2-5.98,5.25h11.55Z"/><path class="cls-1" d="m347.12,64.17h4.23v3.21c1.42-2.56,3.58-3.58,6.46-3.58.45,0,.89.04,1.34.08v4.03c-.53-.04-1.02-.08-1.47-.08-3.78,0-6.34,1.83-6.34,7.2v9.72h-4.23v-20.58Z"/><path class="cls-1" d="m360.4,78.65l4.27-.61c.45,2.81,2.52,3.74,4.84,3.74s4.03-1.06,4.03-2.85c0-2.19-2.6-2.56-5.04-2.85-3.34-.37-7.4-1.38-7.4-5.85,0-4.15,3.66-6.47,7.93-6.47,3.78,0,7.69,1.91,8.01,6.38l-4.27.45c-.08-2.48-1.75-3.54-3.82-3.54s-3.78.97-3.78,2.76c0,2.24,2.48,2.64,4.8,2.89,3.09.32,7.85.97,7.85,5.82,0,4.47-4.31,6.63-8.54,6.63s-8.14-1.95-8.86-6.51Z"/><path class="cls-1" d="m380.92,54.82h4.23v12.08c1.5-2.11,3.9-3.13,6.46-3.13,3.74,0,7.28,2.44,7.28,7.44v13.54h-4.27v-12.24c0-3.33-1.99-5-4.39-5-2.56,0-5.08,2.03-5.08,5.45v11.79h-4.23v-29.93Z"/><path class="cls-1" d="m402.08,57.5c0-1.67,1.3-2.97,3.01-2.97s2.97,1.3,2.97,2.97-1.3,2.97-2.97,2.97-3.01-1.3-3.01-2.97Zm.89,6.67h4.23v20.58h-4.23v-20.58Z"/><path class="cls-1" d="m411.5,64.17h4.23v2.97c1.54-2.11,4.19-3.38,7.11-3.38,5.82,0,10.09,4.76,10.09,10.53s-4.27,10.45-10.09,10.45c-2.97,0-5.57-1.18-7.11-3.37v11.18h-4.23v-28.38Zm17.04,10.12c0-3.86-2.93-6.75-6.55-6.75s-6.55,2.89-6.55,6.75,2.97,6.67,6.55,6.67,6.55-2.81,6.55-6.67Z"/><path class="cls-1" d="m120.67,9.83l-11.99,34.96h9.89l1.99-6.44h12.05l1.94,6.44h9.94l-11.99-34.96h-11.84Zm2.21,21.03l3.78-12.24,3.69,12.24h-7.47Z"/><path class="cls-1" d="m166.08,21.22c-.6-.77-1.32-1.46-2.15-2.07-.83-.62-1.77-1.08-2.8-1.4-1.03-.32-2.13-.47-3.3-.47-2.6,0-4.88.67-6.84,2-1.97,1.33-3.47,3.08-4.52,5.24-1.05,2.17-1.57,4.46-1.57,6.89s.51,4.71,1.52,6.84c1.02,2.13,2.51,3.85,4.47,5.17,1.96,1.32,4.26,1.97,6.89,1.97,1.17,0,2.27-.17,3.32-.5,1.05-.33,1.98-.81,2.8-1.42.81-.62,1.54-1.32,2.17-2.12v3.45h8.84V7.63h-8.84v13.59Zm-.2,13.44c-.53.97-1.27,1.75-2.22,2.35-.95.6-2.06.9-3.32.9s-2.33-.3-3.3-.9c-.97-.6-1.71-1.38-2.22-2.35-.52-.97-.77-2-.77-3.1s.26-2.19.77-3.17c.52-.98,1.26-1.76,2.22-2.35.97-.58,2.07-.87,3.3-.87s2.37.29,3.32.87c.95.58,1.69,1.37,2.22,2.35.53.98.8,2.04.8,3.17s-.27,2.13-.8,3.1Z"/><polygon class="cls-1" points="192.81 36.1 187.06 17.87 177.62 17.87 187.27 44.79 198.35 44.79 207.94 17.87 198.5 17.87 192.81 36.1"/><path class="cls-1" d="m234,38.6v-11.19c0-2.2-.51-4.06-1.52-5.59-1.02-1.53-2.43-2.67-4.24-3.42-1.82-.75-3.9-1.12-6.27-1.12s-4.54.36-6.42,1.07c-1.88.72-3.44,1.82-4.67,3.3-1.23,1.48-1.95,3.27-2.15,5.37l8.34.7c.13-1.27.55-2.24,1.25-2.92.7-.68,1.68-1.02,2.95-1.02.83,0,1.55.17,2.15.5.6.33,1.04.83,1.32,1.5.28.67.43,1.5.43,2.5v.16l-7.84,1.04c-2.66.33-4.81,1.19-6.44,2.57-1.63,1.38-2.45,3.29-2.45,5.72s.82,4.35,2.45,5.67c1.63,1.32,3.66,1.97,6.09,1.97,1.27,0,2.43-.17,3.5-.52,1.07-.35,2.01-.83,2.82-1.45.82-.62,1.47-1.32,1.97-2.12.03,1.3.17,2.46.4,3.5h8.99c-.2-1.27-.36-2.38-.47-3.35-.12-.97-.17-1.91-.17-2.85Zm-11.61-.2c-.82.43-1.71.65-2.67.65-.83,0-1.51-.21-2.02-.62-.52-.42-.77-1.02-.77-1.82,0-.67.27-1.26.8-1.77.53-.52,1.5-.87,2.9-1.07l4.54-.55c-.01,1.25-.27,2.32-.77,3.19-.52.9-1.18,1.57-2,2Z"/><path class="cls-1" d="m259.98,18.34c-1.45-.72-3.01-1.07-4.67-1.07-1.83,0-3.45.35-4.84,1.05-1.4.7-2.55,1.75-3.45,3.15v-3.6h-8.84v26.92h8.84v-15.23c0-1.03.22-1.91.65-2.65.43-.73,1-1.29,1.7-1.67.7-.38,1.45-.57,2.25-.57s1.52.18,2.17.55c.65.37,1.16.9,1.55,1.6.38.7.57,1.55.57,2.55v15.43h8.84v-18.03c0-2.06-.43-3.8-1.3-5.22-.87-1.41-2.02-2.48-3.47-3.2Z"/><path class="cls-1" d="m283.76,37.75c-1.03,0-1.87-.35-2.52-1.05-.65-.7-.97-1.65-.97-2.85v-8.54h6.24v-7.44h-6.24v-7.19h-8.84v7.19h-4.39v7.44h4.39v9.29c0,2.43.45,4.45,1.35,6.04.9,1.6,2.13,2.79,3.7,3.57,1.56.78,3.36,1.17,5.39,1.17,1.7,0,3.43-.23,5.19-.7l-1-7.34c-.83.27-1.6.4-2.3.4Z"/><path class="cls-1" d="m314.77,38.6v-11.19c0-2.2-.51-4.06-1.52-5.59-1.02-1.53-2.43-2.67-4.24-3.42-1.82-.75-3.9-1.12-6.27-1.12s-4.54.36-6.42,1.07c-1.88.72-3.44,1.82-4.67,3.3-1.23,1.48-1.95,3.27-2.15,5.37l8.34.7c.13-1.27.55-2.24,1.25-2.92.7-.68,1.68-1.02,2.95-1.02.83,0,1.55.17,2.15.5.6.33,1.04.83,1.32,1.5.28.67.43,1.5.43,2.5v.16l-7.84,1.04c-2.66.33-4.81,1.19-6.44,2.57-1.63,1.38-2.45,3.29-2.45,5.72s.82,4.35,2.45,5.67c1.63,1.32,3.66,1.97,6.09,1.97,1.27,0,2.43-.17,3.5-.52,1.07-.35,2.01-.83,2.82-1.45.82-.62,1.47-1.32,1.97-2.12.03,1.3.17,2.46.4,3.5h8.99c-.2-1.27-.36-2.38-.47-3.35-.12-.97-.17-1.91-.17-2.85Zm-11.61-.2c-.82.43-1.71.65-2.67.65-.83,0-1.51-.21-2.02-.62-.52-.42-.77-1.02-.77-1.82,0-.67.27-1.26.8-1.77.53-.52,1.5-.87,2.9-1.07l4.54-.55c-.01,1.25-.27,2.32-.77,3.19-.52.9-1.18,1.57-2,2Z"/><path class="cls-1" d="m337.89,20.42c-.57-.7-1.25-1.28-2.05-1.75-.8-.47-1.65-.82-2.55-1.05-.9-.23-1.9-.35-3-.35-2.6,0-4.83.59-6.69,1.77-1.87,1.18-3.28,2.74-4.25,4.67-.97,1.93-1.45,3.96-1.45,6.09s.49,4.26,1.47,6.19c.98,1.93,2.41,3.49,4.27,4.67,1.86,1.18,4.08,1.77,6.64,1.77,1.2,0,2.27-.14,3.22-.42.95-.28,1.77-.67,2.47-1.17.7-.5,1.33-1.1,1.9-1.8v3.35c0,1.27-.26,2.32-.77,3.17-.52.85-1.22,1.46-2.1,1.85-.88.38-1.87.57-2.97.57-1.03,0-1.96-.17-2.77-.5-.82-.33-1.49-.85-2.02-1.55-.53-.7-.87-1.52-1-2.45l-8.69,1.3c.43,2.2,1.33,4.05,2.7,5.57,1.36,1.52,3.05,2.66,5.07,3.45,2.01.78,4.24,1.17,6.67,1.17,2.8,0,5.3-.52,7.52-1.57,2.21-1.05,3.97-2.62,5.27-4.72,1.3-2.1,1.95-4.66,1.95-7.69v-23.13h-8.84v2.55Zm-.08,12.46c-.48.88-1.15,1.58-2,2.1-.85.52-1.86.77-3.02.77s-2.18-.26-3.05-.77c-.87-.52-1.53-1.22-2-2.1-.47-.88-.7-1.84-.7-2.87s.23-1.92.7-2.77c.47-.85,1.13-1.53,2-2.05.87-.52,1.88-.77,3.05-.77s2.19.26,3.07.77c.88.52,1.55,1.2,2,2.05.45.85.67,1.77.67,2.77s-.24,1.99-.72,2.87Z"/><path class="cls-1" d="m377.23,24.51c-1.2-2.46-2.91-4.29-5.14-5.47-2.23-1.18-4.74-1.77-7.54-1.77-3,0-5.62.65-7.87,1.95-2.25,1.3-3.99,3.02-5.22,5.17-1.23,2.15-1.85,4.49-1.85,7.02s.6,4.86,1.8,6.99c1.2,2.13,2.91,3.83,5.14,5.09,2.23,1.27,4.78,1.9,7.64,1.9,2.03,0,3.97-.34,5.82-1.02,1.85-.68,3.45-1.63,4.82-2.85,1.36-1.22,2.36-2.65,3-4.32l-8.59-1.6c-.43.87-1.08,1.54-1.95,2.02-.87.48-1.85.72-2.95.72-1.2,0-2.25-.27-3.15-.82s-1.59-1.34-2.07-2.37c-.2-.42-.35-.87-.47-1.35h19.72c.43-3.73.05-6.83-1.15-9.29Zm-18.5,4.35c.12-.44.28-.86.47-1.25.53-1.1,1.26-1.92,2.17-2.47.91-.55,1.94-.82,3.07-.82.9,0,1.74.18,2.52.52.78.35,1.41.87,1.9,1.55.48.68.74,1.51.77,2.47h-10.91Z"/></svg>