<?xml version="1.0" encoding="UTF-8"?>
<svg version="1.1" xmlns="http://www.w3.org/2000/svg" width="870" height="400" viewBox="0 0 870 400">
  <g transform="translate(0, 85)">
    <path d="M0 0 C11.27843994 8.61743302 18.19503742 19.87819108 20.5 33.91015625 C21.55273541 49.66667153 18.32445012 63.37270823 7.95556641 75.75439453 C-1.03869222 85.9199271 -10.91724738 95.32740363 -20.5 104.91015625 C2.6 105.24015625 25.7 105.57015625 49.5 105.91015625 C48.84 111.52015625 48.18 117.13015625 47.5 122.91015625 C48.68435156 135.41164497 53.8533542 145.69264316 63.5 153.91015625 C74.88086894 161.21855471 86.49604954 163.93876729 99.87109375 161.2265625 C110.55585109 157.94627394 118.88355407 151.43165537 124.75390625 141.8671875 C130.34253569 131.20548484 131.41125881 119.23730452 128 107.66015625 C123.32115024 95.54731523 115.8095384 88.59966253 104.40625 82.85546875 C94.31855841 78.51445392 83.73382146 79.60511587 73.5 82.91015625 C69.05301784 85.05658153 65.00214782 87.40800843 61.5 90.91015625 C57.19715172 90.80613135 54.72258816 87.50301812 51.9375 84.59765625 C51.45603516 84.11103516 50.97457031 83.62441406 50.47851562 83.12304688 C43.71790548 76.21364751 43.71790548 76.21364751 43.16088867 72.88162231 C43.40560968 64.98775988 44.08201624 57.13859386 44.8125 49.27734375 C44.93044922 47.97031494 45.04839844 46.66328613 45.16992188 45.31665039 C45.60839422 40.47237418 46.05464915 35.62880494 46.5 30.78515625 C47.49 19.93640625 48.48 9.08765625 49.5 -2.08984375 C76.56 -2.08984375 103.62 -2.08984375 131.5 -2.08984375 C131.5 5.83015625 131.5 13.75015625 131.5 21.91015625 C112.03 21.91015625 92.56 21.91015625 72.5 21.91015625 C71.55326675 33.00914322 71.55326675 33.00914322 70.61547852 44.10888672 C70.49527918 45.49840053 70.37477596 46.8878881 70.25390625 48.27734375 C70.16441711 49.36317749 70.16441711 49.36317749 70.07312012 50.47094727 C69.6140718 55.68201265 69.6140718 55.68201265 68.5 57.91015625 C69.35980469 57.69359375 70.21960938 57.47703125 71.10546875 57.25390625 C90.23407271 52.74815003 107.76816235 54.83784676 124.72851562 64.78222656 C129.18067956 67.61698364 132.8752752 71.10385897 136.5 74.91015625 C137.46486328 75.88082031 137.46486328 75.88082031 138.44921875 76.87109375 C152.73184544 92.05219371 155.15270579 110.35905889 154.62304688 130.23095703 C153.86583203 146.71840886 144.24379918 160.97072687 132.5 171.91015625 C119.4091341 183.16304958 103.05048504 188.67781865 85.78515625 188.1953125 C70.93728751 186.90649631 58.26094532 181.95866733 46.5 172.91015625 C45.489375 172.18828125 44.47875 171.46640625 43.4375 170.72265625 C33.542606 162.11718186 26.11605478 148.72882469 23.5 135.91015625 C23.5 133.93015625 23.5 131.95015625 23.5 129.91015625 C-10.49 129.91015625 -44.48 129.91015625 -79.5 129.91015625 C-77.53321136 125.97657897 -75.78806433 123.96090339 -72.70239258 120.90136719 C-72.21591248 120.41620132 -71.72943237 119.93103546 -71.22821045 119.4311676 C-69.62153433 117.83097212 -68.00799809 116.23787687 -66.39453125 114.64453125 C-65.27021639 113.5264934 -64.14641952 112.40793442 -63.02311707 111.28887939 C-60.0626377 108.34169905 -57.09665364 105.40012688 -54.12902832 102.46014404 C-49.39634286 97.77055238 -44.67021919 93.07437485 -39.94754601 88.37470245 C-38.30662926 86.74390059 -36.6622805 85.11662142 -35.01753235 83.48968506 C-30.15616376 78.66698801 -25.38103139 73.82348947 -20.96537781 68.58111572 C-19.37816223 66.77122554 -17.68641827 65.12565472 -15.9375 63.47265625 C-9.15904645 56.70946949 -4.67979402 49.72967574 -4.5 39.91015625 C-5.61159896 32.70034618 -8.46858782 26.70224641 -13.875 21.72265625 C-20.63760645 17.05323751 -26.84189104 15.17364896 -35.05078125 16.2421875 C-41.96524269 17.90897058 -46.96454788 21.46946114 -51.5 26.91015625 C-55.2613522 33.12500504 -56.64409057 39.72526749 -55.5 46.91015625 C-53.50296955 53.30880485 -50.50242815 59.10298822 -44.625 62.640625 C-43.078125 63.36185547 -43.078125 63.36185547 -41.5 64.09765625 C-40.46875 64.58621094 -39.4375 65.07476562 -38.375 65.578125 C-37.42625 66.01769531 -36.4775 66.45726563 -35.5 66.91015625 C-34.16404033 67.57154418 -32.82947624 68.23583056 -31.5 68.91015625 C-35.32830636 73.58919736 -39.38724041 78.04034134 -43.5625 82.41015625 C-44.32191895 83.23918457 -44.32191895 83.23918457 -45.09667969 84.08496094 C-48.79752943 87.89175563 -48.79752943 87.89175563 -52.03515625 87.9765625 C-64.90032774 82.41048989 -73.37626908 71.60051146 -78.5 58.91015625 C-82.69728385 44.85713422 -81.46084506 30.49845992 -75.25 17.2421875 C-68.48904865 4.85351245 -57.92957505 -3.42854713 -44.57788086 -7.70556641 C-29.09965327 -11.9580556 -13.18480489 -9.02622544 0 0 Z " fill="#2c73bd" transform="translate(102.5,25.08984375)"/>
<path xmlns="http://www.w3.org/2000/svg" d="M0 0 C12.94727511 10.06610123 23.04609944 24.04557651 26.5625 40.2734375 C28.9411326 60.35252533 27.09914031 79.02862317 14.68359375 95.62109375 C13.47691441 97.07752154 12.24703436 98.5150013 10.99609375 99.93359375 C10.33996094 100.68382813 9.68382812 101.4340625 9.0078125 102.20703125 C-3.51374428 115.62134985 -20.80233368 122.87870809 -39.00390625 123.93359375 C-60.17094478 124.16751118 -79.62657258 117.93403199 -95.00390625 102.93359375 C-108.45239754 88.88898139 -114.40168579 70.85510536 -114.21875 51.6875 C-113.13483489 32.74854691 -104.96989403 17.01713261 -91.4140625 3.99609375 C-65.45584987 -18.21774137 -27.86139519 -19.16603128 0 0 Z M-79.06640625 20.05859375 C-88.56088212 30.36810746 -93.62441286 43.18678694 -93.25 57.23828125 C-91.9690615 71.2676077 -86.44715654 83.37567091 -76.00390625 92.93359375 C-64.21955236 101.97781672 -51.24262303 106.29185578 -36.3515625 104.4921875 C-21.4127251 101.65364619 -10.03820487 94.44085591 -1.24609375 81.8984375 C6.34669339 69.88846287 7.9694665 56.36765447 5.34375 42.484375 C0.91060141 27.92918757 -8.41196314 17.28871879 -21.62890625 9.99609375 C-41.47542671 0.72000266 -63.20144316 5.30504978 -79.06640625 20.05859375 Z " fill="#2c73bd" transform="translate(490.00390625,13.06640625)"/>
    <path xmlns="http://www.w3.org/2000/svg" d="M0 0 C0.74362793 0.01047363 1.48725586 0.02094727 2.25341797 0.03173828 C3.46191406 0.04140625 3.46191406 0.04140625 4.69482422 0.05126953 C5.95746094 0.07640625 5.95746094 0.07640625 7.24560547 0.10205078 C8.51984375 0.11558594 8.51984375 0.11558594 9.81982422 0.12939453 C11.9202043 0.15299431 14.02043991 0.18886595 16.12060547 0.22705078 C16.1242511 1.36995575 16.12789673 2.51286072 16.13165283 3.69039917 C16.16867906 14.48910306 16.22653509 25.2875238 16.30450821 36.08601189 C16.34392811 41.6369427 16.37614358 47.18771617 16.39160156 52.73876953 C16.40680416 58.10117223 16.44131394 63.4631422 16.48891449 68.82535172 C16.50369112 70.8657059 16.51164434 72.90612187 16.51248932 74.94652939 C16.25234422 91.2956166 16.25234422 91.2956166 23.05810547 105.77783203 C30.51444023 112.14678464 39.17378388 116.67444958 49.12060547 117.22705078 C49.85408203 117.27732422 50.58755859 117.32759766 51.34326172 117.37939453 C62.6657948 117.82798934 74.405024 114.78922684 82.87060547 107.03955078 C90.2538133 99.18435707 91.25174555 89.7956464 91.32592773 79.46777344 C91.33582733 78.60858307 91.34572693 77.7493927 91.35592651 76.86416626 C91.38737479 74.03984277 91.41223267 71.21550249 91.43701172 68.39111328 C91.45759566 66.42670264 91.4785925 64.46229629 91.49998474 62.49789429 C91.55505669 57.33916708 91.60453133 52.1804009 91.65283203 47.02160645 C91.70315596 41.75281321 91.75878507 36.48407626 91.81396484 31.21533203 C91.92136435 20.88595309 92.02284944 10.55652517 92.12060547 0.22705078 C95.07948006 0.1463542 98.03617137 0.08670413 100.99560547 0.03955078 C101.83736328 0.01441406 102.67912109 -0.01072266 103.54638672 -0.03662109 C104.35205078 -0.04628906 105.15771484 -0.05595703 105.98779297 -0.06591797 C107.10323486 -0.08948364 107.10323486 -0.08948364 108.24121094 -0.11352539 C108.86141113 -0.00113525 109.48161133 0.11125488 110.12060547 0.22705078 C112.63830729 4.00360352 112.40198159 6.99014817 112.37939453 11.36352539 C112.38289917 12.1932486 112.38640381 13.0229718 112.39001465 13.87783813 C112.3988345 16.62844148 112.39297711 19.37878842 112.38623047 22.12939453 C112.3875782 24.04692128 112.38951963 25.96444769 112.39202881 27.88197327 C112.39498136 31.90954833 112.39068246 35.93703483 112.38134766 39.96459961 C112.3700221 45.0987181 112.37646768 50.23262587 112.38849258 55.36673641 C112.39576685 59.33300828 112.39339668 63.29923139 112.388237 67.26550484 C112.38691224 69.15631702 112.38850661 71.04713377 112.39319611 72.9379406 C112.42779863 90.83149182 111.81846306 107.50158489 98.80810547 121.22705078 C85.15405731 133.67972753 68.09904188 137.81605566 49.97216797 137.46533203 C35.16052301 136.54899294 19.65118778 131.76447583 8.78857422 121.11767578 C-3.82855724 106.81629024 -4.47878395 92.67504947 -4.34033203 74.46533203 C-4.33794353 72.38120132 -4.33704314 70.29706842 -4.33755493 68.2129364 C-4.3344457 63.87350741 -4.31801277 59.53441323 -4.29101562 55.19506836 C-4.25680433 49.62528553 -4.24939467 44.05586521 -4.25090599 38.48598957 C-4.25036359 34.19586206 -4.23942114 29.90581421 -4.22490311 25.61571312 C-4.21853236 23.56034128 -4.21459556 21.50496042 -4.21311569 19.44957924 C-4.20879885 16.59179712 -4.19133988 13.73440732 -4.16992188 10.87670898 C-4.17082825 10.0253537 -4.17173462 9.17399841 -4.17266846 8.29684448 C-4.08677223 0.49372541 -4.08677223 0.49372541 0 0 Z " fill="#2c73bd" transform="translate(668.87939453125,-0.22705078125)"/>
    <path xmlns="http://www.w3.org/2000/svg" d="M0 0 C1.83007812 1.7253418 1.83007812 1.7253418 2.28417969 3.99365234 C2.26323242 4.85772705 2.24228516 5.72180176 2.22070312 6.61206055 C2.2078125 7.54985352 2.19492187 8.48764648 2.18164062 9.45385742 C2.148125 10.43032227 2.11460937 11.40678711 2.08007812 12.4128418 C2.06203125 13.4009082 2.04398438 14.38897461 2.02539062 15.40698242 C1.9782326 17.84741022 1.91243855 20.28588949 1.83007812 22.7253418 C0.64414062 22.19424805 -0.54179688 21.6631543 -1.76367188 21.1159668 C-21.16133091 12.57817241 -42.28551656 5.70729779 -63.21679688 13.40893555 C-77.33022826 19.70024028 -85.88762777 27.57449705 -92.07617188 41.8425293 C-95.84816679 51.78443017 -96.02647896 65.88711311 -92.54492188 75.9128418 C-91.80409726 77.54111257 -91.01284067 79.14750318 -90.16992188 80.7253418 C-89.75742187 81.56967773 -89.34492187 82.41401367 -88.91992188 83.28393555 C-82.29808671 95.64344039 -71.79333796 101.93388123 -58.90429688 106.53393555 C-39.12504761 112.00720109 -19.52791504 104.64568979 -2.16992188 95.7253418 C-0.83732227 95.05720969 0.4958313 94.39017835 1.83007812 93.7253418 C2.00447402 97.30805955 2.11095471 100.88968782 2.20507812 104.4753418 C2.25535156 105.49112305 2.305625 106.5069043 2.35742188 107.5534668 C2.41332314 110.38579779 2.3693159 112.94355963 1.83007812 115.7253418 C-2.09498679 119.68743563 -7.54693822 121.16685878 -12.79492188 122.8503418 C-13.59687988 123.10895996 -14.39883789 123.36757812 -15.22509766 123.6340332 C-36.68002864 130.3745472 -59.85528687 129.93771251 -80.16992188 119.7253418 C-97.11959956 110.12651902 -109.09137684 96.33232326 -114.98242188 77.4753418 C-119.25030538 59.81951418 -117.31966737 41.72798158 -108.53320312 25.7487793 C-97.87687447 8.36339817 -82.59535653 -2.61290786 -62.80273438 -7.73168945 C-43.11578353 -11.79175795 -17.70420747 -10.39982754 0 0 Z " fill="#2c73bd" transform="translate(647.169921875,9.274658203125)"/>
    <path xmlns="http://www.w3.org/2000/svg" d="M0 0 C2.27593505 1.76647917 2.93780474 2.5522387 3.34057617 5.4519043 C3.32486572 6.39976807 3.30915527 7.34763184 3.29296875 8.32421875 C3.28330078 9.35224609 3.27363281 10.38027344 3.26367188 11.43945312 C3.23853516 12.51130859 3.21339844 13.58316406 3.1875 14.6875 C3.16719727 16.31268555 3.16719727 16.31268555 3.14648438 17.97070312 C3.11110643 20.64763405 3.06174189 23.32356838 3 26 C-1.52583352 22.99376268 -6.03719919 19.97416723 -10.5 16.875 C-19.90129226 10.60198362 -28.68346223 7.96990489 -40 9 C-44.60339877 10.29934643 -47.33122549 12.24762867 -50.5 15.8125 C-52.29630376 19.6296455 -52.59635846 21.82549076 -52 26 C-46.86559757 36.73556872 -34.97731019 43.11476887 -25.33935547 49.25854492 C-12.90350783 57.20425431 -1.28012477 65.27050918 2.58984375 80.2890625 C4.33398789 91.81702475 3.79307256 102.89966591 -3 112.625 C-11.33682674 122.58045908 -21.84764002 126.00404063 -34.46875 127.2421875 C-45.14359183 127.59028017 -55.57693537 124.93467661 -65 120 C-65.62575928 119.7311499 -66.25151855 119.4622998 -66.89624023 119.18530273 C-69.15518972 117.99116831 -70.45974398 117.05448664 -72 115 C-72.87272529 110.53816797 -72.65896591 106.21173226 -72.4375 101.6875 C-72.40591797 100.46998047 -72.37433594 99.25246094 -72.34179688 97.99804688 C-72.25939449 94.99624565 -72.14439803 91.99935347 -72 89 C-71.34 89 -70.68 89 -70 89 C-69.34 89.845625 -68.68 90.69125 -68 91.5625 C-61.3187152 99.85042807 -50.88938793 105.27818379 -40.4375 106.875 C-33.10073099 107.40646207 -26.70436606 105.75363838 -21 101 C-17.65786404 97.21224591 -17.40089333 93.42400714 -17.6171875 88.54296875 C-18.62533756 81.84597191 -22.2627914 78.34527812 -27.59790039 74.39038086 C-30.68672719 72.19098681 -33.83248263 70.08399707 -37 68 C-37.9583374 67.36892334 -37.9583374 67.36892334 -38.93603516 66.72509766 C-39.57202637 66.30663574 -40.20801758 65.88817383 -40.86328125 65.45703125 C-67.41509317 47.98331052 -67.41509317 47.98331052 -71.52734375 35.5234375 C-73.32442105 25.92912401 -73.16805094 15.5012909 -68 7 C-62.43912466 -1.00996552 -54.55894767 -7.05505178 -45.0546875 -9.52734375 C-28.7434449 -12.0512061 -13.91683109 -9.09200637 0 0 Z " fill="#2c73bd" transform="translate(867,10)"/>
    <path xmlns="http://www.w3.org/2000/svg" d="M0 0 C0.70269516 -0.00043808 1.40539032 -0.00087616 2.12937927 -0.00132751 C4.45087518 0.0007617 6.77164791 0.02409798 9.09301758 0.04760742 C10.70298366 0.05320293 12.31295484 0.05747324 13.92292786 0.06047058 C18.1595979 0.07192299 22.39595922 0.10139339 26.63250732 0.13458252 C30.95589013 0.16527498 35.27932284 0.17897414 39.6027832 0.1940918 C48.08536252 0.22626294 56.5676317 0.27903391 65.05004883 0.34057617 C65.05004883 6.61057617 65.05004883 12.88057617 65.05004883 19.34057617 C46.90004883 19.34057617 28.75004883 19.34057617 10.05004883 19.34057617 C10.05004883 32.21057617 10.05004883 45.08057617 10.05004883 58.34057617 C28.20004883 58.34057617 46.35004883 58.34057617 65.05004883 58.34057617 C65.05004883 64.28057617 65.05004883 70.22057617 65.05004883 76.34057617 C46.90004883 76.34057617 28.75004883 76.34057617 10.05004883 76.34057617 C10.05004883 96.47057617 10.05004883 116.60057617 10.05004883 137.34057617 C3.45004883 137.34057617 -3.14995117 137.34057617 -9.94995117 137.34057617 C-10.01935281 119.920975 -10.07291174 102.50142891 -10.10538769 85.08172131 C-10.12086661 76.99372341 -10.14197562 68.9058129 -10.17626953 60.81787109 C-10.20614062 53.76966603 -10.22551872 46.72152425 -10.23221666 39.67325765 C-10.23613283 35.94009876 -10.24535742 32.20712094 -10.26714134 28.47402 C-10.29124399 24.30990896 -10.29192265 20.14611412 -10.29052734 15.98193359 C-10.30131317 14.73972046 -10.312099 13.49750732 -10.32321167 12.21765137 C-10.31908768 11.08603073 -10.31496368 9.9544101 -10.31071472 8.78849792 C-10.3134801 7.80310122 -10.31624548 6.81770452 -10.31909466 5.80244732 C-9.94995117 3.34057617 -9.94995117 3.34057617 -8.62078857 1.52262878 C-5.88863468 -0.41026405 -3.29276053 -0.01723958 0 0 Z " fill="#2c73bd" transform="translate(296.949951171875,-0.340576171875)"/>
    <path xmlns="http://www.w3.org/2000/svg" d="M0 0 C3.3 0 6.6 0 10 0 C10 12.54 10 25.08 10 38 C22.21 38 34.42 38 47 38 C47 41.3 47 44.6 47 48 C40.62793258 48.02466852 34.25589279 48.04284495 27.88378906 48.05493164 C25.71483883 48.05996891 23.545892 48.06679891 21.37695312 48.07543945 C18.26431437 48.08753151 15.1517204 48.09323428 12.0390625 48.09765625 C11.065065 48.10281754 10.0910675 48.10797882 9.08755493 48.11329651 C8.18677216 48.11337204 7.28598938 48.11344757 6.35791016 48.11352539 C5.56293121 48.115746 4.76795227 48.11796661 3.94888306 48.12025452 C2 48 2 48 0 47 C0 31.49 0 15.98 0 0 Z " fill="#E3A352" transform="translate(0,165)"/>
    <path xmlns="http://www.w3.org/2000/svg" d="M0 0 C6.37206742 -0.02466852 12.74410721 -0.04284495 19.11621094 -0.05493164 C21.28516117 -0.05996891 23.454108 -0.06679891 25.62304688 -0.07543945 C28.73568563 -0.08753151 31.8482796 -0.09323428 34.9609375 -0.09765625 C35.934935 -0.10281754 36.9089325 -0.10797882 37.91244507 -0.11329651 C38.81322784 -0.11337204 39.71401062 -0.11344757 40.64208984 -0.11352539 C41.43706879 -0.115746 42.23204773 -0.11796661 43.05111694 -0.12025452 C45 0 45 0 47 1 C47 16.51 47 32.02 47 48 C44.03 48 41.06 48 38 48 C38 35.46 38 22.92 38 10 C25.46 10 12.92 10 0 10 C0 6.7 0 3.4 0 0 Z " fill="#E3A352" transform="translate(210,0)"/>
    <path xmlns="http://www.w3.org/2000/svg" d="M0 0 C0.33 0.66 0.66 1.32 1 2 C1.99 1.34 2.98 0.68 4 0 C8.80352428 -0.73036042 13.77073861 -1.05821832 18.23828125 1.0625 C22.56450179 4.47159884 25.1136183 8.56041547 26 14 C26.21792904 20.66104844 25.52844752 25.85960011 21 31 C16.98627728 34.85611581 13.68460903 37.14653261 8 37.125 C6.9790625 37.12886719 6.9790625 37.12886719 5.9375 37.1328125 C4 37 4 37 1 36 C0.67 40.29 0.34 44.58 0 49 C1.32 49 2.64 49 4 49 C4 50.32 4 51.64 4 53 C-0.95 53 -5.9 53 -11 53 C-11 52.01 -11 51.02 -11 50 C-10.01 50 -9.02 50 -8 50 C-7.67 35.48 -7.34 20.96 -7 6 C-8.32 6 -9.64 6 -11 6 C-11 4.68 -11 3.36 -11 2 C-7.12315913 0.80712589 -4.08378077 0 0 0 Z M0 7 C-0.68802255 9.59752465 -0.68802255 9.59752465 -0.48828125 12.54296875 C-0.47216797 13.61611328 -0.45605469 14.68925781 -0.43945312 15.79492188 C-0.39755859 16.91447266 -0.35566406 18.03402344 -0.3125 19.1875 C-0.28994141 20.31865234 -0.26738281 21.44980469 -0.24414062 22.61523438 C-0.18514811 25.41147976 -0.1028824 28.20508097 0 31 C3.57038924 32.91956411 5.89988147 33.50205533 10 33 C13.79105686 30.9722254 15.36464329 28.72165855 16.875 24.8125 C18.42223218 19.43697334 18.57123137 14.25859723 16.1015625 9.13671875 C14.64440746 6.84142566 13.45760469 5.22880234 11 4 C6.34882857 3.58656254 3.69286858 4.09992445 0 7 Z " fill="#E3A352" transform="translate(844,177)"/>
    <path xmlns="http://www.w3.org/2000/svg" d="M0 0 C0.33 6.27 0.66 12.54 1 19 C2.32 18.34 3.64 17.68 5 17 C9.959628 16.36433978 14.46881184 16.31252776 19.0625 18.375 C25.16161426 26.63831609 23.19151978 39.23249109 23 49 C24.32 49 25.64 49 27 49 C27 50.32 27 51.64 27 53 C22.05 53 17.1 53 12 53 C12.33 51.68 12.66 50.36 13 49 C13.66 49 14.32 49 15 49 C15.05834353 45.77090994 15.09371115 42.54195662 15.125 39.3125 C15.14175781 38.40048828 15.15851562 37.48847656 15.17578125 36.54882812 C15.3009269 30.01459287 15.3009269 30.01459287 13 24 C10.18138229 21.67178442 10.18138229 21.67178442 7 22.25 C3.84584582 22.85985983 3.84584582 22.85985983 1 25 C0.49039309 27.51385259 0.49039309 27.51385259 0.48828125 30.4453125 C0.45283203 31.52167969 0.41738281 32.59804687 0.38085938 33.70703125 C0.34702148 35.39892578 0.34702148 35.39892578 0.3125 37.125 C0.27833984 38.26066406 0.24417969 39.39632812 0.20898438 40.56640625 C0.12630498 43.37750579 0.05722063 46.18828553 0 49 C1.32 49 2.64 49 4 49 C4 50.32 4 51.64 4 53 C-0.95 53 -5.9 53 -11 53 C-11 52.01 -11 51.02 -11 50 C-10.01 49.34 -9.02 48.68 -8 48 C-7.52640971 46.11185494 -7.52640971 46.11185494 -7.56762695 43.91748047 C-7.53793571 42.65639969 -7.53793571 42.65639969 -7.50764465 41.36984253 C-7.50125473 40.46146637 -7.49486481 39.55309021 -7.48828125 38.6171875 C-7.46135445 37.22308151 -7.46135445 37.22308151 -7.43388367 35.80081177 C-7.37960152 32.82558767 -7.3458278 29.85052557 -7.3125 26.875 C-7.27934271 24.86065444 -7.24485456 22.84633032 -7.20898438 20.83203125 C-7.12386485 15.88813744 -7.05713939 10.94429318 -7 6 C-8.32 6 -9.64 6 -11 6 C-11 4.68 -11 3.36 -11 2 C-3.375 0 -3.375 0 0 0 Z " fill="#E3A352" transform="translate(784,160)"/>
    <path xmlns="http://www.w3.org/2000/svg" d="M0 0 C3.81223512 -0.11745244 7.62399682 -0.18766603 11.4375 -0.25 C12.50677734 -0.28351563 13.57605469 -0.31703125 14.67773438 -0.3515625 C22.44037833 -0.44651839 28.92014634 0.55762348 35 5.6875 C37.23272378 10.85067373 37.46141141 15.436328 35.875 20.8125 C32.53769494 26.48591859 28.46500557 28.57745213 22.359375 30.47265625 C18.81927377 31.26390404 15.61497326 31.19718036 12 31 C12.01160156 31.84304687 12.02320313 32.68609375 12.03515625 33.5546875 C12.04869141 35.19824219 12.04869141 35.19824219 12.0625 36.875 C12.07410156 37.96554688 12.08570313 39.05609375 12.09765625 40.1796875 C12 43 12 43 11 45 C13.31 45 15.62 45 18 45 C18 46.32 18 47.64 18 49 C12.06 49 6.12 49 0 49 C0 47.68 0 46.36 0 45 C1.485 44.505 1.485 44.505 3 44 C4.26625424 40.20123729 4.23298547 36.57578074 4.31640625 32.61328125 C4.33718735 31.79627243 4.35796844 30.97926361 4.37937927 30.13749695 C4.44473079 27.52924966 4.50369273 24.92090225 4.5625 22.3125 C4.60569892 20.54360946 4.64931365 18.77472903 4.69335938 17.00585938 C4.80039743 12.67067537 4.90170544 8.33539071 5 4 C3.35 4 1.7 4 0 4 C0 2.68 0 1.36 0 0 Z M12 5 C11.91299658 6.63472882 11.89298937 8.27314055 11.90234375 9.91015625 C11.90556641 10.89951172 11.90878906 11.88886719 11.91210938 12.90820312 C11.92048828 13.94912109 11.92886719 14.99003906 11.9375 16.0625 C11.94201172 17.10728516 11.94652344 18.15207031 11.95117188 19.22851562 C11.96300087 21.8190666 11.97948311 24.40950559 12 27 C13.87751953 27.05220703 13.87751953 27.05220703 15.79296875 27.10546875 C16.49703857 27.12504639 17.2011084 27.14462402 17.92651367 27.16479492 C21.4200679 26.88713696 23.40395271 25.23380813 26 23 C28.35898308 20.09058754 28.95868197 18.28406147 29.5 14.5625 C28.83624442 9.83324149 27.34318209 8.34318209 24 5 C21.6203388 3.8101694 20.08514265 3.86650034 17.4375 3.875 C16.63183594 3.87242187 15.82617188 3.86984375 14.99609375 3.8671875 C13.00057979 3.77988609 13.00057979 3.77988609 12 5 Z " fill="#E3A352" transform="translate(503,164)"/>
    <path xmlns="http://www.w3.org/2000/svg" d="M0 0 C0.33 0.66 0.66 1.32 1 2 C1.53753906 1.6803125 2.07507813 1.360625 2.62890625 1.03125 C7.20062641 -0.95710934 12.13696769 -0.77064446 17 0 C20.01201997 1.9489541 21.49531441 4.43906651 22.60717773 7.87792969 C23.06685759 10.36117224 23.1123403 12.67746874 23.09765625 15.203125 C23.09443359 16.1828125 23.09121094 17.1625 23.08789062 18.171875 C23.07532227 19.69554687 23.07532227 19.69554687 23.0625 21.25 C23.05798828 22.28125 23.05347656 23.3125 23.04882812 24.375 C23.03706088 26.91672573 23.02062011 29.45833319 23 32 C24.32 32 25.64 32 27 32 C27 33.32 27 34.64 27 36 C22.05 36 17.1 36 12 36 C12.33 34.68 12.66 33.36 13 32 C13.66 32 14.32 32 15 32 C15.05830787 28.60423938 15.09369946 25.2086085 15.125 21.8125 C15.14175781 20.85279297 15.15851562 19.89308594 15.17578125 18.90429688 C15.18222656 17.97294922 15.18867187 17.04160156 15.1953125 16.08203125 C15.20578613 15.22843018 15.21625977 14.3748291 15.22705078 13.49536133 C14.97204194 10.69273185 14.15541422 8.55270581 13 6 C8.07509857 4.91777066 8.07509857 4.91777066 3.3059082 6.1340332 C0.78360524 7.79693503 0.78360524 7.79693503 0.34057617 10.54370117 C0.32486572 11.53345947 0.30915527 12.52321777 0.29296875 13.54296875 C0.26396484 14.61611328 0.23496094 15.68925781 0.20507812 16.79492188 C0.19927734 17.91447266 0.19347656 19.03402344 0.1875 20.1875 C0.16236328 21.31865234 0.13722656 22.44980469 0.11132812 23.61523438 C0.05235616 26.4105053 0.01614967 29.20420675 0 32 C1.32 32 2.64 32 4 32 C4 33.32 4 34.64 4 36 C-0.95 36 -5.9 36 -11 36 C-11 35.01 -11 34.02 -11 33 C-10.01 32.34 -9.02 31.68 -8 31 C-6.91343939 25.33746702 -6.87272498 19.75002852 -6.9375 14 C-6.94201172 13.22527344 -6.94652344 12.45054687 -6.95117188 11.65234375 C-6.96280242 9.76819476 -6.98073094 7.88408635 -7 6 C-8.32 6 -9.64 6 -11 6 C-11 4.68 -11 3.36 -11 2 C-7.12315913 0.80712589 -4.08378077 0 0 0 Z " fill="#E3A352" transform="translate(645,177)"/>
    <path xmlns="http://www.w3.org/2000/svg" d="M0 0 C1.13050781 -0.03738281 2.26101563 -0.07476562 3.42578125 -0.11328125 C7.34887449 0.39883511 8.93099882 1.52587313 11.6875 4.3125 C12.7467918 7.49037541 12.80208939 9.73838943 12.78515625 13.07421875 C12.78193359 14.19248047 12.77871094 15.31074219 12.77539062 16.46289062 C12.76701172 17.63013672 12.75863281 18.79738281 12.75 20 C12.74548828 21.17884766 12.74097656 22.35769531 12.73632812 23.57226562 C12.72453273 26.48572789 12.7080727 29.39908863 12.6875 32.3125 C14.0075 32.3125 15.3275 32.3125 16.6875 32.3125 C16.6875 33.6325 16.6875 34.9525 16.6875 36.3125 C15.06286158 36.36645478 13.43771459 36.40527195 11.8125 36.4375 C10.45511719 36.47230469 10.45511719 36.47230469 9.0703125 36.5078125 C6.6875 36.3125 6.6875 36.3125 4.6875 34.3125 C3.841875 34.8075 2.99625 35.3025 2.125 35.8125 C-1.75544451 37.50578488 -4.12150264 37.76969971 -8.3125 37.3125 C-11.8511994 35.66110695 -13.12320153 34.59644771 -15.3125 31.3125 C-15.3125 26.13488287 -15.20632133 24.26868096 -11.625 20.4375 C-5.7008962 16.63713152 -1.17457096 16.07587686 5.6875 16.3125 C5.0275 12.6825 4.3675 9.0525 3.6875 5.3125 C-0.84390653 4.37869039 -0.84390653 4.37869039 -5.3125 5.3125 C-6.54219878 8.82440809 -6.54219878 8.82440809 -7.3125 12.3125 C-8.9625 11.9825 -10.6125 11.6525 -12.3125 11.3125 C-13.125 9.125 -13.125 9.125 -13.3125 6.3125 C-9.0189016 1.2065992 -6.52123464 0.14032102 0 0 Z M-1.375 20.625 C-2.06722656 20.86863281 -2.75945313 21.11226562 -3.47265625 21.36328125 C-5.65514222 22.30092787 -5.65514222 22.30092787 -7.3125 25.3125 C-7.72929297 27.85480847 -7.72929297 27.85480847 -7.3125 30.3125 C-4.42650612 32.66868542 -4.42650612 32.66868542 -0.8125 32.125 C2.69786985 31.31009271 3.62709277 31.08875868 5.6875 28.3125 C6.04896457 26.02919899 6.04896457 26.02919899 5.875 23.625 C5.84792969 22.81675781 5.82085938 22.00851563 5.79296875 21.17578125 C5.75816406 20.56089844 5.72335937 19.94601563 5.6875 19.3125 C2.83687676 19.3125 1.25331418 19.66701633 -1.375 20.625 Z " fill="#E3A352" transform="translate(557.3125,176.6875)"/>
    <path xmlns="http://www.w3.org/2000/svg" d="M0 0 C13.2 0 26.4 0 40 0 C40.75372099 3.76860494 41.11244419 6.56668585 41.0625 10.3125 C41.05347656 11.19550781 41.04445313 12.07851562 41.03515625 12.98828125 C41.02355469 13.65214844 41.01195312 14.31601563 41 15 C39.68 15 38.36 15 37 15 C36.34 11.7 35.68 8.4 35 5 C31.37 4.34 27.74 3.68 24 3 C23.67 16.86 23.34 30.72 23 45 C24.98 45 26.96 45 29 45 C29 46.32 29 47.64 29 49 C23.39 49 17.78 49 12 49 C12 47.68 12 46.36 12 45 C13.485 44.505 13.485 44.505 15 44 C16.44749758 40.07893973 16.22632246 35.86764418 16.31640625 31.734375 C16.33718735 30.94097717 16.35796844 30.14757935 16.37937927 29.33013916 C16.44459973 26.80351156 16.50363144 24.27678279 16.5625 21.75 C16.6057114 20.03384384 16.64932653 18.31769778 16.69335938 16.6015625 C16.80025283 12.40114454 16.90159729 8.20062511 17 4 C11.06 4.495 11.06 4.495 5 5 C4.34 8.3 3.68 11.6 3 15 C1.68 15 0.36 15 -1 15 C-1.02715383 13.25008666 -1.04646551 11.50005055 -1.0625 9.75 C-1.07410156 8.77546875 -1.08570313 7.8009375 -1.09765625 6.796875 C-1 4 -1 4 0 0 Z " fill="#E3A352" transform="translate(288,164)"/>
    <path xmlns="http://www.w3.org/2000/svg" d="M0 0 C1.13308594 -0.03738281 2.26617187 -0.07476562 3.43359375 -0.11328125 C7.187855 0.39759825 8.26044018 1.37914246 10.5625 4.3125 C11.91950647 7.02651294 11.6748861 9.16096316 11.66015625 12.1953125 C11.65693359 13.36191406 11.65371094 14.52851563 11.65039062 15.73046875 C11.64201172 16.95378906 11.63363281 18.17710937 11.625 19.4375 C11.62048828 20.66855469 11.61597656 21.89960938 11.61132812 23.16796875 C11.5995133 26.21619392 11.58304028 29.26432314 11.5625 32.3125 C13.2125 32.3125 14.8625 32.3125 16.5625 32.3125 C16.5625 33.6325 16.5625 34.9525 16.5625 36.3125 C12.9325 36.3125 9.3025 36.3125 5.5625 36.3125 C5.2325 35.6525 4.9025 34.9925 4.5625 34.3125 C3.7375 34.8075 2.9125 35.3025 2.0625 35.8125 C-2.33146025 37.69562582 -4.68618421 37.76500627 -9.4375 37.3125 C-14.00694444 35.17361111 -14.00694444 35.17361111 -15.4375 32.3125 C-16.12876913 25.28459721 -16.12876913 25.28459721 -13.4375 21.5 C-7.67987763 17.30173369 -2.50811926 15.8705863 4.5625 16.3125 C4.44851335 14.68669034 4.32094341 13.06182843 4.1875 11.4375 C4.11789062 10.53257812 4.04828125 9.62765625 3.9765625 8.6953125 C3.76681868 6.13308097 3.76681868 6.13308097 1.5625 4.3125 C-2.03429066 4.63576553 -2.03429066 4.63576553 -5.4375 5.3125 C-6.0975 7.2925 -6.7575 9.2725 -7.4375 11.3125 C-9.09364657 11.69468767 -10.76207024 12.02645102 -12.4375 12.3125 C-13.4375 11.3125 -13.4375 11.3125 -13.75 8.5 C-13.4375 5.3125 -13.4375 5.3125 -11.625 3 C-7.89782556 0.12475114 -4.57802875 0.09873161 0 0 Z M-7.4375 23.6875 C-8.68513844 25.36004233 -8.68513844 25.36004233 -8.25 27.875 C-7.59122967 30.45691272 -7.59122967 30.45691272 -5.4375 32.3125 C-1.29919011 32.01153201 1.08097024 31.63351984 4.5625 29.3125 C4.92666047 26.87556689 4.92666047 26.87556689 4.75 24.1875 C4.70939453 22.82238281 4.70939453 22.82238281 4.66796875 21.4296875 C4.61576172 20.38167969 4.61576172 20.38167969 4.5625 19.3125 C0.01386566 19.3125 -3.71277543 21.12675186 -7.4375 23.6875 Z " fill="#E3A352" transform="translate(375.4375,176.6875)"/>
    <path xmlns="http://www.w3.org/2000/svg" d="M0 0 C4.39339784 1.84985172 6.11938059 3.70314153 7.875 8 C8.88405813 10.96918253 9 12.72464754 9 16 C1.08 16 -6.84 16 -15 16 C-13.91774075 24.94060201 -13.91774075 24.94060201 -9 31 C-4.12344498 32.03104306 -0.88061672 31.53815466 3.375 28.9375 C4.24125 28.298125 5.1075 27.65875 6 27 C6.99 27.33 7.98 27.66 9 28 C7.49364535 32.21779303 4.75987578 33.7747674 1 36 C-4.19796387 37.73265462 -8.5407546 37.44519351 -13.6875 35.875 C-18.38077902 33.21842697 -21.25588922 30.23233234 -23 25 C-23.6350156 17.29653203 -23.88954348 11.21104172 -19 5 C-12.91421478 -0.50618662 -8.04131117 -0.72529473 0 0 Z M-13 6 C-13.66 7.98 -14.32 9.96 -15 12 C-9.72 12 -4.44 12 1 12 C0.63315494 6.30018119 0.63315494 6.30018119 -1.8125 4.125 C-6.25178601 1.84193863 -9.33769778 3.10870877 -13 6 Z " fill="#E3A352" transform="translate(452,177)"/>
    <path xmlns="http://www.w3.org/2000/svg" d="M0 0 C4.39339784 1.84985172 6.11938059 3.70314153 7.875 8 C8.88405813 10.96918253 9 12.72464754 9 16 C1.08 16 -6.84 16 -15 16 C-13.83222101 25.21210645 -13.83222101 25.21210645 -10.875 29.125 C-7.7976716 31.1319533 -5.6707855 31.65353503 -1.9921875 31.4453125 C1.14941194 30.74307263 3.42246046 28.85822618 6 27 C6.99 27.33 7.98 27.66 9 28 C7.49364535 32.21779303 4.75987578 33.7747674 1 36 C-4.43060835 37.81020278 -9.09743772 37.70097747 -14.25 35.3125 C-18.73741845 32.82634676 -21.36474899 29.90575302 -23 25 C-23.68752177 17.82030835 -23.98456698 11.51180798 -19.46484375 5.58984375 C-13.75723789 -0.60481115 -8.08187948 -1.06428043 0 0 Z M-12 5 C-12.99 7.31 -13.98 9.62 -15 12 C-9.72 12 -4.44 12 1 12 C0.63315494 6.30018119 0.63315494 6.30018119 -1.8125 4.125 C-5.53781166 2.20912543 -8.73412273 2.57692977 -12 5 Z " fill="#E3A352" transform="translate(699,177)"/>
    <path xmlns="http://www.w3.org/2000/svg" d="M0 0 C0.80566406 0.00322266 1.61132812 0.00644531 2.44140625 0.00976562 C3.70404297 0.02233398 3.70404297 0.02233398 4.9921875 0.03515625 C5.84167969 0.03966797 6.69117188 0.04417969 7.56640625 0.04882812 C9.66669659 0.06062751 11.7669508 0.07856319 13.8671875 0.09765625 C13.8671875 4.38765625 13.8671875 8.67765625 13.8671875 13.09765625 C12.5471875 13.09765625 11.2271875 13.09765625 9.8671875 13.09765625 C9.5990625 12.16953125 9.3309375 11.24140625 9.0546875 10.28515625 C7.77096147 6.49339557 7.77096147 6.49339557 4.8671875 4.09765625 C1.22176905 4.33242824 1.22176905 4.33242824 -2.1328125 5.09765625 C-2.99639873 6.87907372 -2.99639873 6.87907372 -3.1328125 9.09765625 C0.46787501 13.47805468 5.0342563 15.23545763 10.08984375 17.53515625 C12.94179227 19.13962799 14.2596691 20.27906824 15.8671875 23.09765625 C16.39039653 27.2085843 16.32644529 29.3322266 14.1796875 32.91015625 C10.07687816 36.79119212 6.68329364 37.37362835 1.0703125 37.234375 C-2.68510911 37.00132579 -6.39938607 36.56433455 -10.1328125 36.09765625 C-10.1328125 31.80765625 -10.1328125 27.51765625 -10.1328125 23.09765625 C-9.1428125 23.09765625 -8.1528125 23.09765625 -7.1328125 23.09765625 C-6.6996875 24.21140625 -6.2665625 25.32515625 -5.8203125 26.47265625 C-4.43370131 30.27277959 -4.43370131 30.27277959 -1.1328125 32.09765625 C3.52135919 32.4398807 3.52135919 32.4398807 7.8671875 31.09765625 C8.20144485 28.72390764 8.20144485 28.72390764 7.8671875 26.09765625 C5.11704788 23.59351535 2.35211618 22.42325668 -1.1328125 21.22265625 C-5.37034461 19.56014365 -8.01724129 18.32879866 -10.1328125 14.09765625 C-10.97272473 9.70151988 -10.68534667 6.96329311 -8.2578125 3.16015625 C-5.36837481 0.35570202 -3.90547584 -0.02750335 0 0 Z " fill="#E3A352" transform="translate(753.1328125,176.90234375)"/>
    <path xmlns="http://www.w3.org/2000/svg" d="M0 0 C4.62 0 9.24 0 14 0 C14 0.99 14 1.98 14 3 C13.01 3 12.02 3 11 3 C12.88054508 10.18582267 15.52833524 16.43198558 19 23 C21.31 16.73 23.62 10.46 26 4 C25.01 3.67 24.02 3.34 23 3 C23 2.01 23 1.02 23 0 C26.96 0 30.92 0 35 0 C35 0.99 35 1.98 35 3 C34.39244873 3.60320068 33.78489746 4.20640137 33.15893555 4.82788086 C30.66225422 7.33980824 29.73598709 9.46429818 28.45703125 12.75390625 C28.02326172 13.85541016 27.58949219 14.95691406 27.14257812 16.09179688 C26.70365234 17.23712891 26.26472656 18.38246094 25.8125 19.5625 C25.36197266 20.71169922 24.91144531 21.86089844 24.44726562 23.04492188 C22.12211688 28.98550399 22.12211688 28.98550399 20 35 C18.35 35 16.7 35 15 35 C13.17670803 30.79626174 11.36829379 26.58628119 9.5625 22.375 C9.04623047 21.18519531 8.52996094 19.99539062 7.99804688 18.76953125 C7.50498047 17.61582031 7.01191406 16.46210938 6.50390625 15.2734375 C6.04830322 14.21560059 5.5927002 13.15776367 5.12329102 12.06787109 C4.01083779 9.02959959 3.42162682 6.20100757 3 3 C2.01 3 1.02 3 0 3 C0 2.01 0 1.02 0 0 Z " fill="#E3A352" transform="translate(392,178)"/>
    <path xmlns="http://www.w3.org/2000/svg" d="M0 0 C1.32 0 2.64 0 4 0 C4 3.3 4 6.6 4 10 C7.63 10 11.26 10 15 10 C15 10.99 15 11.98 15 13 C11.37 13 7.74 13 4 13 C4.33 21.91 4.66 30.82 5 40 C11.05696767 39.30346 11.05696767 39.30346 16 37 C16.33 37.99 16.66 38.98 17 40 C14.16172524 43.57073276 11.97208356 45.36070391 7.5 46.0625 C4.00232222 46.28401959 3.1325896 46.08010621 0 44.1875 C-3.17489762 40.71495573 -3.12011655 38.74400915 -3.09765625 34.1171875 C-3.09443359 32.95058594 -3.09121094 31.78398437 -3.08789062 30.58203125 C-3.07951172 29.35871094 -3.07113281 28.13539063 -3.0625 26.875 C-3.05798828 25.64394531 -3.05347656 24.41289062 -3.04882812 23.14453125 C-3.0370133 20.09630608 -3.02054028 17.04817686 -3 14 C-4.65 14 -6.3 14 -8 14 C-7.8125 11.75 -7.8125 11.75 -7 9 C-5.34997172 7.64613064 -3.6825613 6.31321858 -2 5 C-0.66701026 2.38181544 -0.66701026 2.38181544 0 0 Z " fill="#E3A352" transform="translate(615,168)"/>
    <path xmlns="http://www.w3.org/2000/svg" d="M0 0 C0 16.17 0 32.34 0 49 C1.32 49 2.64 49 4 49 C4 50.32 4 51.64 4 53 C-0.95 53 -5.9 53 -11 53 C-11 52.01 -11 51.02 -11 50 C-10.01 49.34 -9.02 48.68 -8 48 C-7.52640971 46.11185494 -7.52640971 46.11185494 -7.56762695 43.91748047 C-7.54783279 43.07675995 -7.52803864 42.23603943 -7.50764465 41.36984253 C-7.49805977 40.00727829 -7.49805977 40.00727829 -7.48828125 38.6171875 C-7.46135445 37.22308151 -7.46135445 37.22308151 -7.43388367 35.80081177 C-7.37960152 32.82558767 -7.3458278 29.85052557 -7.3125 26.875 C-7.27934271 24.86065444 -7.24485456 22.84633032 -7.20898438 20.83203125 C-7.12386485 15.88813744 -7.05713939 10.94429318 -7 6 C-8.65 6 -10.3 6 -12 6 C-12 4.68 -12 3.36 -12 2 C-10.56342755 1.66269158 -9.12569907 1.33030409 -7.6875 1 C-6.88699219 0.814375 -6.08648437 0.62875 -5.26171875 0.4375 C-3 0 -3 0 0 0 Z " fill="#E3A352" transform="translate(476,160)"/>
    <path xmlns="http://www.w3.org/2000/svg" d="M0 0 C0 1.32 0 2.64 0 4 C0.99 3.34 1.98 2.68 3 2 C7.19528659 -0.40951287 10.21911497 -0.4861917 15 0 C15.66 0.66 16.32 1.32 17 2 C16.625 5.125 16.625 5.125 16 8 C13.625 8.125 13.625 8.125 11 8 C10.34 7.34 9.68 6.68 9 6 C6.62687517 6.22965724 5.29102912 6.7755325 3.40307617 8.23168945 C1.53586219 10.58495739 1.57448832 12.12270403 1.48828125 15.10546875 C1.45283203 16.08837891 1.41738281 17.07128906 1.38085938 18.08398438 C1.34702148 19.62022461 1.34702148 19.62022461 1.3125 21.1875 C1.27833984 22.22326172 1.24417969 23.25902344 1.20898438 24.32617188 C1.12647358 26.8840066 1.05733428 29.44149723 1 32 C2.32 32 3.64 32 5 32 C5 33.32 5 34.64 5 36 C0.05 36 -4.9 36 -10 36 C-9.67 34.68 -9.34 33.36 -9 32 C-8.34 32 -7.68 32 -7 32 C-7 23.42 -7 14.84 -7 6 C-8.32 6 -9.64 6 -11 6 C-11 4.68 -11 3.36 -11 2 C-7.12315913 0.80712589 -4.08378077 0 0 0 Z " fill="#E3A352" transform="translate(723,177)"/>
    <path xmlns="http://www.w3.org/2000/svg" d="M0 0 C0.33 1.32 0.66 2.64 1 4 C1.639375 3.34 2.27875 2.68 2.9375 2 C6.97278721 -0.63528961 10.2897723 -0.5936444 15 0 C16 1 16 1 16.0625 4.0625 C16.041875 5.031875 16.02125 6.00125 16 7 C13.6875 7.6875 13.6875 7.6875 11 8 C9.1875 6.5625 9.1875 6.5625 8 5 C4.73539027 6.80412643 3.11070205 7.83394693 1 11 C0.63423946 13.31923274 0.63423946 13.31923274 0.5859375 15.88671875 C0.52792969 17.2934082 0.52792969 17.2934082 0.46875 18.72851562 C0.4378125 19.70498047 0.406875 20.68144531 0.375 21.6875 C0.31699219 23.16959961 0.31699219 23.16959961 0.2578125 24.68164062 C0.16354133 27.12090707 0.07793782 29.56016595 0 32 C1.32 32 2.64 32 4 32 C4 33.32 4 34.64 4 36 C-0.95 36 -5.9 36 -11 36 C-11 35.01 -11 34.02 -11 33 C-10.01 32.34 -9.02 31.68 -8 31 C-7.48987435 28.38803709 -7.48987435 28.38803709 -7.48828125 25.3359375 C-7.45283203 24.21445313 -7.41738281 23.09296875 -7.38085938 21.9375 C-7.35830078 20.761875 -7.33574219 19.58625 -7.3125 18.375 C-7.27833984 17.19164062 -7.24417969 16.00828125 -7.20898438 14.7890625 C-7.12629425 11.8594694 -7.05721286 8.9301836 -7 6 C-8.32 6 -9.64 6 -11 6 C-11 4.68 -11 3.36 -11 2 C-7.12315913 0.80712589 -4.08378077 0 0 0 Z " fill="#E3A352" transform="translate(342,177)"/>
    <path xmlns="http://www.w3.org/2000/svg" d="M0 0 C0.33 1.32 0.66 2.64 1 4 C1.639375 3.34 2.27875 2.68 2.9375 2 C6.97278721 -0.63528961 10.2897723 -0.5936444 15 0 C16 1 16 1 16.125 4 C16 7 16 7 15 8 C12.5625 8.25 12.5625 8.25 10 8 C9.34 7.01 8.68 6.02 8 5 C3.85329961 7.37629089 3.85329961 7.37629089 1 11 C0.84824451 12.59262066 0.75099675 14.19064856 0.68359375 15.7890625 C0.62075195 17.20058594 0.62075195 17.20058594 0.55664062 18.640625 C0.49766602 20.11789063 0.49766602 20.11789063 0.4375 21.625 C0.39431641 22.61757812 0.35113281 23.61015625 0.30664062 24.6328125 C0.20038931 27.08839838 0.09835036 29.54408703 0 32 C1.32 32 2.64 32 4 32 C4 33.32 4 34.64 4 36 C-0.95 36 -5.9 36 -11 36 C-11 35.01 -11 34.02 -11 33 C-10.01 32.34 -9.02 31.68 -8 31 C-7.58290642 28.38309243 -7.58290642 28.38309243 -7.70703125 25.3359375 C-7.71669922 24.21445313 -7.72636719 23.09296875 -7.73632812 21.9375 C-7.76146484 20.761875 -7.78660156 19.58625 -7.8125 18.375 C-7.82603516 17.19164062 -7.83957031 16.00828125 -7.85351562 14.7890625 C-7.88896084 11.85892461 -7.93837231 8.92968541 -8 6 C-8.99 6 -9.98 6 -11 6 C-11 4.68 -11 3.36 -11 2 C-7.12315913 0.80712589 -4.08378077 0 0 0 Z " fill="#E3A352" transform="translate(589,177)"/>
    <path xmlns="http://www.w3.org/2000/svg" d="M0 0 C0.02469321 4.2358357 0.04285671 8.47163342 0.05493164 12.70751953 C0.05996474 14.1489332 0.06679173 15.59034176 0.07543945 17.03173828 C0.08754983 19.10190085 0.09323847 21.17199601 0.09765625 23.2421875 C0.10289307 24.4885498 0.10812988 25.73491211 0.11352539 27.01904297 C0 30 0 30 -1 32 C0.65 32 2.3 32 4 32 C4 33.32 4 34.64 4 36 C-0.95 36 -5.9 36 -11 36 C-10.67 34.68 -10.34 33.36 -10 32 C-9.34 32 -8.68 32 -8 32 C-7.67 23.42 -7.34 14.84 -7 6 C-8.65 6 -10.3 6 -12 6 C-12 4.68 -12 3.36 -12 2 C-10.7625 1.67 -9.525 1.34 -8.25 1 C-7.55390625 0.814375 -6.8578125 0.62875 -6.140625 0.4375 C-4 0 -4 0 0 0 Z " fill="#E3A352" transform="translate(826,177)"/>
    <path xmlns="http://www.w3.org/2000/svg" d="M0 0 C2.97 0 5.94 0 9 0 C8.773125 0.680625 8.54625 1.36125 8.3125 2.0625 C7.87709824 6.15527655 9.20163215 8.33132959 11 12 C13.02350324 8.96474514 13.32124018 7.80573798 13.625 4.3125 C13.69976562 3.50425781 13.77453125 2.69601563 13.8515625 1.86328125 C13.90054688 1.24839844 13.94953125 0.63351563 14 0 C16.31 0 18.62 0 21 0 C21 0.99 21 1.98 21 3 C20.01 3.495 20.01 3.495 19 4 C17.91948296 6.35972437 17.91948296 6.35972437 16.94140625 9.2421875 C16.36229492 10.84126953 16.36229492 10.84126953 15.77148438 12.47265625 C14.9683975 14.73271657 14.16630673 16.9931311 13.36523438 19.25390625 C12.97787109 20.32253906 12.59050781 21.39117187 12.19140625 22.4921875 C11.84279541 23.47558105 11.49418457 24.45897461 11.13500977 25.47216797 C10.02054524 27.95424275 9.17692631 29.384402 7 31 C4.3125 30.6875 4.3125 30.6875 2 30 C1.67 29.01 1.34 28.02 1 27 C4.75 25.875 4.75 25.875 7 27 C8.85304118 19.19075504 6.97268066 14.78278351 3.34765625 7.72265625 C2 5 2 5 2 3 C1.34 3 0.68 3 0 3 C0 2.01 0 1.02 0 0 Z " fill="#2c73bd" transform="translate(23,165)"/>
    <path xmlns="http://www.w3.org/2000/svg" d="M0 0 C1.17755859 -0.00773438 1.17755859 -0.00773438 2.37890625 -0.015625 C4.4375 0.25 4.4375 0.25 6.4375 2.25 C6.58257695 4.99485593 6.62402423 7.63480543 6.5625 10.375 C6.55347656 11.12910156 6.54445313 11.88320312 6.53515625 12.66015625 C6.5115687 14.52357254 6.47569719 16.38682593 6.4375 18.25 C7.4275 18.25 8.4175 18.25 9.4375 18.25 C9.4375 18.91 9.4375 19.57 9.4375 20.25 C6.83373726 20.52565727 4.23294032 20.77127265 1.625 21 C0.88701172 21.08121094 0.14902344 21.16242188 -0.61132812 21.24609375 C-2.76953125 21.421875 -2.76953125 21.421875 -6.5625 21.25 C-8.60546875 19.42578125 -8.60546875 19.42578125 -9.5625 17.25 C-8.90081783 13.8588789 -7.96927776 12.56882581 -5.25 10.4375 C-2.42305017 9.18838263 -0.61350339 8.98848542 2.4375 9.25 C1.7775 7.27 1.1175 5.29 0.4375 3.25 C-0.8825 3.25 -2.2025 3.25 -3.5625 3.25 C-3.5625 4.57 -3.5625 5.89 -3.5625 7.25 C-4.8825 7.25 -6.2025 7.25 -7.5625 7.25 C-7.75 4.875 -7.75 4.875 -7.5625 2.25 C-4.42838698 0.16059132 -3.58799528 -0.02364412 0 0 Z M-4.5625 14.25 C-3.9025 15.57 -3.2425 16.89 -2.5625 18.25 C-0.9125 17.59 0.7375 16.93 2.4375 16.25 C2.4375 14.6 2.4375 12.95 2.4375 11.25 C-0.45758511 11.25 -2.15946473 12.73229352 -4.5625 14.25 Z " fill="#2c73bd" transform="translate(73.5625,164.75)"/>
    <path xmlns="http://www.w3.org/2000/svg" d="M0 0 C2.4375 1.125 2.4375 1.125 4 3 C4.33 4.98 4.66 6.96 5 9 C0.38 9 -4.24 9 -9 9 C-8.34 11.64 -7.68 14.28 -7 17 C-2.2102679 17.23428313 -2.2102679 17.23428313 2 15 C2.99 15 3.98 15 5 15 C3.63016497 18.16115776 3.0109362 18.9927092 0 21 C-3.0169088 21.34061873 -5.09407815 21.57212107 -8 21 C-10.69105198 18.82425584 -12.45532928 17.08934144 -14 14 C-14.54724071 8.30869663 -13.59333707 5.43882815 -10 1 C-6.80694192 -0.59652904 -3.47376353 -0.37145194 0 0 Z M-5 2 C-7.29215045 3.79191032 -7.29215045 3.79191032 -9 6 C-9 6.33 -9 6.66 -9 7 C-6.03 7 -3.06 7 0 7 C-0.33 5.68 -0.66 4.36 -1 3 C-2.78141747 2.13641377 -2.78141747 2.13641377 -5 2 Z " fill="#2c73bd" transform="translate(58,165)"/>
    <path xmlns="http://www.w3.org/2000/svg" d="M0 0 C1.51400391 0.01740234 1.51400391 0.01740234 3.05859375 0.03515625 C4.07050781 0.04417969 5.08242187 0.05320313 6.125 0.0625 C7.29869141 0.07990234 7.29869141 0.07990234 8.49609375 0.09765625 C8.49609375 2.73765625 8.49609375 5.37765625 8.49609375 8.09765625 C7.83609375 8.09765625 7.17609375 8.09765625 6.49609375 8.09765625 C6.16609375 6.44765625 5.83609375 4.79765625 5.49609375 3.09765625 C3.84609375 3.09765625 2.19609375 3.09765625 0.49609375 3.09765625 C0.68966582 5.05317509 0.68966582 5.05317509 1.49609375 7.09765625 C3.31788682 8.22545851 3.31788682 8.22545851 5.49609375 8.97265625 C9.34290974 10.73001464 9.34290974 10.73001464 10.74609375 14.09765625 C10.49609375 17.09765625 10.49609375 17.09765625 9.24609375 19.47265625 C4.89576222 22.0433067 0.42896343 21.40383437 -4.50390625 21.09765625 C-4.83390625 18.45765625 -5.16390625 15.81765625 -5.50390625 13.09765625 C-4.51390625 13.09765625 -3.52390625 13.09765625 -2.50390625 13.09765625 C-1.84390625 14.41765625 -1.18390625 15.73765625 -0.50390625 17.09765625 C1.14609375 17.09765625 2.79609375 17.09765625 4.49609375 17.09765625 C4.82609375 16.10765625 5.15609375 15.11765625 5.49609375 14.09765625 C4.60921875 13.87078125 3.72234375 13.64390625 2.80859375 13.41015625 C-0.93771157 11.92577112 -2.84120059 10.0736214 -5.50390625 7.09765625 C-3.27951797 0.12790632 -3.27951797 0.12790632 0 0 Z " fill="#2c73bd" transform="translate(106.50390625,164.90234375)"/>
    <path xmlns="http://www.w3.org/2000/svg" d="M0 0 C0.33 -0.33 0.66 -0.66 1 -1 C3.33297433 -1.04092937 5.66705225 -1.04241723 8 -1 C7.67 0.65 7.34 2.3 7 4 C6.401875 3.79375 5.80375 3.5875 5.1875 3.375 C2.71549154 2.69328085 2.71549154 2.69328085 0 5 C-0.58481121 7.88595946 -0.58481121 7.88595946 -0.6875 11.125 C-0.75324219 12.22070312 -0.81898437 13.31640625 -0.88671875 14.4453125 C-0.92410156 15.28835937 -0.96148437 16.13140625 -1 17 C-0.34 17 0.32 17 1 17 C1 17.66 1 18.32 1 19 C-1.64 19 -4.28 19 -7 19 C-6.67 18.01 -6.34 17.02 -6 16 C-5.93062938 13.77181559 -5.91542916 11.54165476 -5.9375 9.3125 C-5.95103516 7.54326172 -5.95103516 7.54326172 -5.96484375 5.73828125 C-5.97644531 4.83464844 -5.98804687 3.93101562 -6 3 C-6.66 3 -7.32 3 -8 3 C-8 2.01 -8 1.02 -8 0 C-4.90461839 -0.99494409 -3.10172125 -0.85564724 0 0 Z " fill="#2c73bd" transform="translate(92,166)"/>
    <path xmlns="http://www.w3.org/2000/svg" d="M0 0 C1.875 0.6875 1.875 0.6875 2.875 1.6875 C3.0625 4.125 3.0625 4.125 2.875 6.6875 C2.215 7.3475 1.555 8.0075 0.875 8.6875 C-2.25 8.3125 -2.25 8.3125 -5.125 7.6875 C-5.3125 4.8125 -5.3125 4.8125 -5.125 1.6875 C-2.125 -0.3125 -2.125 -0.3125 0 0 Z " fill="#E3A352" transform="translate(823.125,162.3125)"/>
  </g>
</svg>