<svg width="117" height="28" viewBox="0 0 117 28" fill="none" xmlns="http://www.w3.org/2000/svg">
<path d="M27.5737 20.0554C27.3148 20.7707 27.1909 21.5687 27.1909 22.431C27.1909 25.338 29.4546 27.8545 33.226 27.8545C36.686 27.8545 38.6654 26.4576 39.5662 25.5295H39.6869L39.5106 27.3016H48.1939L50.3338 17.6706C50.4211 17.254 50.491 16.8558 50.5355 16.476L27.5737 20.0554ZM38.2349 14.4358C38.4843 13.2871 39.393 12.3773 40.5447 12.3773C41.7187 12.3773 42.1985 13.3392 41.9904 14.3148L41.841 15.0179L50.5069 14.1433C49.8508 9.87615 45.7141 8.02287 40.9085 8.02287C33.7502 8.02287 30.33 11.4537 29.6548 14.4894L29.561 14.9183H38.1348L38.2349 14.4358ZM40.5765 20.7799C40.3017 22.1828 39.3136 23.2887 37.9235 23.2887C36.6145 23.2887 36.0204 22.2533 36.2698 21.1245C36.4811 20.1749 37.5073 19.2253 39.4121 19.2253H40.9197L40.5765 20.7799ZM63.7375 14.4087C63.1354 15.1868 62.6493 16.3095 62.2649 18.0035C61.442 21.6641 62.338 22.6214 63.4595 22.6214C64.9576 22.6214 66.2253 21.249 66.848 18.0571C67.2468 16.0231 67.1864 14.5604 66.6145 13.96L75.8857 12.5126C76.34 13.9309 76.4147 15.752 75.9794 17.8304C74.6212 24.4057 70.4479 27.855 65.7885 27.855C63.6788 27.855 61.3753 27.325 60.4174 25.1593H60.2204L59.469 27.3005H51.0795L53.5705 15.9955L63.7375 14.4087ZM64.2396 10.1492C64.9688 9.57795 66.7671 8.25002 69.5186 8.25002C72.3129 8.25002 74.4607 9.42172 75.5315 11.6319L54.0566 13.7869L56.9431 0.692927H66.192L64.1093 10.1492H64.2396ZM9.75399 22.8415L10.5658 19.0813H0.0682214C-0.659363 25.4483 4.52587 28 11.1774 28C17.5604 28 24.3105 25.9461 25.8133 20.3311L9.75399 22.8415ZM9.40609 16.4836C5.68397 15.3487 2.8753 13.235 2.8753 9.23133C2.8753 3.37282 8.94062 0.0185412 17.0568 0.000161583C23.9324 -0.0243446 28.4837 2.73873 27.6815 8.24955H17.8972C18.242 6.74396 17.3444 5.8893 15.67 5.8893C14.3689 5.8893 13.3617 6.53872 13.2013 7.29994C12.9741 8.39046 13.6985 9.07817 15.4523 9.53613C16.9313 9.92516 17.9417 10.184 19.3953 10.5838C23.5336 11.7264 25.513 14.1081 26.0246 16.6016L13.7287 17.8238L9.40609 16.4836ZM93.5501 8.5764C91.5072 8.5764 89.8709 9.71135 88.7668 11.1725H88.5984L88.8844 8.80002H80.3075L79.7848 11.2078L84.5189 10.7314L84.414 11.1863L79.6101 11.9383L76.2279 27.3007H85.4768C85.4768 27.3007 86.4316 22.8865 87.013 20.3011C87.9455 16.1764 90.2919 15.2436 91.8551 15.2436C93.1752 15.2436 93.9997 15.818 94.2047 15.9788L95.7186 9.10176C95.5724 9.02211 94.7829 8.5764 93.5501 8.5764ZM109.017 15.7665L109.112 15.3361C109.393 13.9056 108.681 12.8227 107.126 12.8227C105.693 12.8227 104.472 13.8137 104.041 15.7665H109.017ZM115.887 21.3646C114.456 25.2826 110.519 27.8542 104.062 27.8542C98.6858 27.8542 93.5038 24.8399 94.7826 17.9353C95.8533 12.1228 101.391 8.25078 107.725 8.25078C114.818 8.25078 117.916 12.9468 116.766 18.4208L116.489 19.6753H103.166C103.123 19.8192 102.954 20.4166 102.954 21.0721C102.954 22.714 103.858 23.2884 105.008 23.2884C106.197 23.2884 107.218 22.6482 107.781 21.3646H115.887Z" fill="#7F8196"/>
</svg>
